<svg xmlns="http://www.w3.org/2000/svg" viewBox="0 0 24 24"><path d="M11.724,15.562A3.34,3.34,0,0,1,8.652,12.4a2.878,2.878,0,0,1-.017-.339l.007-.095.19-.025c.157-.021.8-.091,1.34-.144l.112-.011v.185A2.059,2.059,0,0,0,11,13.607a2.208,2.208,0,0,0,.758.371,1.863,1.863,0,0,0,.613.058,1.931,1.931,0,0,0,.783-.1,1.336,1.336,0,0,0,.91-.936c.024-.093.027-.133.009-.153a2.966,2.966,0,0,0-.759-.029c-.4,0-.793-.006-.863-.013l-.127-.013-.015-.53a2.337,2.337,0,0,1,.008-.554c.03-.029,1.272-.024,1.9.008s1.371.088,1.424.109.047.025.036.214a4.551,4.551,0,0,1-.431,1.87,2.941,2.941,0,0,1-2.485,1.662,5.506,5.506,0,0,1-1.034-.01Z" fill="#018ecf"/><path d="M18.589,15.571a2.53,2.53,0,0,1-2.316-1.841,3.766,3.766,0,0,1-.136-1.223c-.006-.353-.006-.641,0-.641l.526.064a6.524,6.524,0,0,1,1.081.172,4,4,0,0,1,.024.418,1.808,1.808,0,0,0,.067.585,1.23,1.23,0,0,0,1.26.943,1.189,1.189,0,0,0,.937-.358,1.073,1.073,0,0,0,.237-.32,1.844,1.844,0,0,0,.163-.608.18.18,0,0,1,.019-.1c.02-.013.942.235,1.316.353.261.083.255.071.2.38a2.5,2.5,0,0,1-2.41,2.177,5.927,5.927,0,0,1-.97,0Z" fill="#018ecf"/><path d="M2,15.431c0-.009.18-.484.4-1.055l.4-1.038.454-.151a32.863,32.863,0,0,1,4.257-1.054c.138-.023.186-.025.2-.006s1.316,3.2,1.338,3.282c.009.035-.04.037-.816.037a4.307,4.307,0,0,1-.847-.026c-.011-.015-.161-.418-.334-.895s-.32-.878-.33-.888-2.427.168-2.489.192c-.014,0-.149.369-.3.808l-.272.8-.832.005c-.457,0-.831,0-.831-.01Z" fill="#018ecf"/><path d="M3.236,12.244c.1-.266,1.35-3.517,1.383-3.6l.034-.085.807.006.807,0,.557,1.376c.307.756.555,1.377.552,1.379s-.12.024-.26.049-.443.086-.673.134-.423.083-.427.079-.114-.3-.244-.664-.246-.673-.258-.7c-.054-.1-.086-.028-.371.809-.156.459-.286.838-.289.841s-.168.05-.365.1c-.32.088-1.167.343-1.267.382C3.188,12.378,3.19,12.366,3.236,12.244Z" fill="#003f52"/><path d="M21.852,12.213c-.12-.038-.99-.286-1.224-.348l-.175-.046V8.561H22V10.4a17.24,17.24,0,0,1-.027,1.842.908.908,0,0,1-.121-.033Z" fill="#003f52"/><path d="M17.424,11.207c-.194-.031-1.221-.168-1.262-.168,0,0-.01-.557-.01-1.239V8.561h1.589V9.906c0,1.268,0,1.345-.037,1.343Z" fill="#003f52"/><path d="M8.737,11.1a3.8,3.8,0,0,1,.14-.513c.031-.084.112-.263.181-.4a3.369,3.369,0,0,1,2.747-1.748,4.642,4.642,0,0,1,2.556.391,3.408,3.408,0,0,1,.69.429c0,.02-.7.976-.862,1.176l-.071.089-.171-.115a3.407,3.407,0,0,0-.718-.357,2.647,2.647,0,0,0-1.808.043,1.933,1.933,0,0,0-.829.7c-.092.15-.059.138-.51.174-.331.026-1.223.121-1.3.138C8.757,11.12,8.737,11.115,8.737,11.1Z" fill="#003f52"/></svg>