<?xml version="1.0" encoding="UTF-8" standalone="no"?>
<!-- Created with Inkscape (http://www.inkscape.org/) -->

<svg
   xmlns:dc="http://purl.org/dc/elements/1.1/"
   xmlns:cc="http://creativecommons.org/ns#"
   xmlns:rdf="http://www.w3.org/1999/02/22-rdf-syntax-ns#"
   xmlns:svg="http://www.w3.org/2000/svg"
   xmlns="http://www.w3.org/2000/svg"
   xmlns:sodipodi="http://sodipodi.sourceforge.net/DTD/sodipodi-0.dtd"
   xmlns:inkscape="http://www.inkscape.org/namespaces/inkscape"
   version="1.1"
   id="svg10"
   width="336.99918"
   height="136.23489"
   viewBox="0 0 336.99917 136.2349"
   sodipodi:docname="AGU100_logo_V_Scaled.svg"
   inkscape:version="0.92.3 (2405546, 2018-03-11)">
  <metadata
     id="metadata16">
    <rdf:RDF>
      <cc:Work
         rdf:about="">
        <dc:format>image/svg+xml</dc:format>
        <dc:type
           rdf:resource="http://purl.org/dc/dcmitype/StillImage" />
        <dc:title></dc:title>
      </cc:Work>
    </rdf:RDF>
  </metadata>
  <defs
     id="defs14" />
  <sodipodi:namedview
     pagecolor="#ffffff"
     bordercolor="#666666"
     borderopacity="1"
     objecttolerance="10"
     gridtolerance="10"
     guidetolerance="10"
     inkscape:pageopacity="0"
     inkscape:pageshadow="2"
     inkscape:window-width="1440"
     inkscape:window-height="838"
     id="namedview12"
     showgrid="false"
     inkscape:zoom="0.9983453"
     inkscape:cx="161.71625"
     inkscape:cy="-87.138693"
     inkscape:window-x="-8"
     inkscape:window-y="-8"
     inkscape:window-maximized="1"
     inkscape:current-layer="g330" />
  <g
     id="g38"
     transform="translate(-203.95097,0.38646598)">
    <g
       id="g320"
       transform="translate(159.78454,-34.764427)">
      <g
         id="g330"
         transform="matrix(0.63553013,0,0,0.63553013,16.097333,12.529731)">
        <g
           id="g306"
           transform="matrix(0.56933651,0,0,0.56933651,19.020869,18.992498)">
          <path
             inkscape:connector-curvature="0"
             id="path46"
             d="M 159.52,287.78617 C 146.53717,286.19129 135.74255,281.58825 127.43498,274.1045 115.54971,263.39783 109.44,248.94925 109.44,231.549 c 0,-14.80164 4.8517,-28.01194 14.06871,-38.30658 12.72047,-14.20769 34.43881,-20.70527 55.49244,-16.60192 11.91987,2.32318 23.40477,8.77035 30.83212,17.30795 11.39705,13.10067 15.9323,31.86795 12.21134,50.53154 -4.6992,23.57024 -23.0578,40.10206 -47.95621,43.18432 -2.50835,0.31052 -12.36173,0.39294 -14.5684,0.12186 z m 10.72,-22.82339 c 5.28932,-0.60664 10.78796,-2.54409 14.61546,-5.14976 2.21531,-1.50812 6.02421,-5.25184 7.64683,-7.51594 7.88622,-11.004 8.20349,-28.57078 0.72296,-40.02981 -4.8233,-7.38854 -12.56138,-12.22957 -21.67928,-13.56278 -3.57387,-0.52257 -10.28005,-0.22069 -13.62597,0.61338 -10.73426,2.67584 -18.96841,10.48529 -22.24675,21.09932 -3.18748,10.31986 -1.52098,23.05087 4.10034,31.32395 6.49968,9.56582 18.17273,14.63162 30.46641,13.22164 z m 112.32001,22.81563 c -8.78845,-0.93502 -19.09676,-4.58901 -26.08104,-9.24495 -11.69292,-7.79485 -19.80868,-20.11135 -22.55085,-34.22321 -3.64432,-18.7545 0.92687,-37.40123 12.3744,-50.47756 15.72,-17.95669 44.67524,-23.59787 68.37124,-13.32035 16.20385,7.028 27.58436,21.62103 30.93716,39.67023 0.86784,4.67196 1.1903,13.81232 0.65395,18.53742 -1.93408,17.03898 -9.9775,30.72426 -23.34256,39.71556 -7.35892,4.9507 -15.9008,8.02613 -25.63391,9.22926 -2.51654,0.31107 -12.1723,0.38555 -14.72839,0.1136 z m 11.093,-22.84049 c 12.72295,-1.4187 22.60419,-9.33298 26.48121,-21.20985 2.6552,-8.13397 2.30172,-18.56848 -0.89485,-26.41742 -3.56092,-8.74351 -11.6334,-15.60702 -21.15936,-17.99042 -3.3436,-0.83657 -10.04474,-1.13939 -13.62597,-0.61574 -12.75451,1.86495 -22.42233,10.42391 -25.72834,22.77738 -2.8922,10.80723 -1.05439,22.62154 4.79711,30.83812 1.59235,2.23596 5.40404,5.98328 7.62174,7.49303 3.66711,2.49648 9.13888,4.47185 14.13546,5.10304 3.20604,0.40501 4.89725,0.40942 8.373,0.0219 z M 72.881362,250.31999 c -0.07603,-34.01363 -0.117024,-36.4 -0.625363,-36.4 -0.2992,0 -3.450164,2.56671 -7.002138,5.7038 l -6.458138,5.7038 -1.265574,-1.2238 c -0.696068,-0.67309 -3.999866,-4.06135 -7.341773,-7.52948 -4.216682,-4.37595 -5.995431,-6.43248 -5.812285,-6.72 0.145152,-0.22787 5.59191,-5.59154 12.10391,-11.91927 6.512001,-6.32772 13.580842,-13.20372 15.708535,-15.27999 L 76.057074,178.88 h 10.611463 10.611465 v 53.91999 53.92 H 85.121362 72.962725 Z M 191.04,152.15445 c -26.53977,-3.28694 -43.82596,-21.10304 -46.41169,-47.83445 -0.19578,-2.024 -0.30924,-4.328002 -0.25214,-5.120002 l 0.10383,-1.44 2.88,-0.383965 c 2.3621,-0.314919 12.12202,-1.363174 20.24,-2.173856 l 1.68,-0.16777 0.002,2.802794 c 0.007,10.302269 3.94175,19.317359 10.81563,24.779769 2.97974,2.3679 7.34883,4.50538 11.44533,5.59938 2.88183,0.76961 3.74231,0.85104 9.25716,0.87606 6.27651,0.0285 7.99409,-0.18777 11.84,-1.49069 7.12304,-2.41315 12.00097,-7.43051 13.74095,-14.13372 0.36317,-1.39911 0.39857,-2.00349 0.1359,-2.32 -0.28413,-0.3423 -2.58056,-0.428 -11.46912,-0.428 -6.11264,0 -11.9782,-0.0903 -13.03459,-0.20076 l -1.92072,-0.20075 -0.22947,-8 c -0.16596,-5.785756 -0.12961,-8.099433 0.13132,-8.359247 0.44809,-0.446157 19.20214,-0.374637 28.6457,0.109241 9.60079,0.491939 20.70666,1.34081 21.51715,1.644653 0.69038,0.258819 0.71064,0.379651 0.5429,3.237856 -0.71527,12.188027 -2.55749,20.177337 -6.51381,28.249007 -7.20148,14.69242 -19.81711,23.12719 -37.53363,25.09487 -4.04998,0.44981 -11.37915,0.3839 -15.61262,-0.14042 z m 103.68001,0.12675 c -18.03873,-2.07273 -30.41474,-11.9072 -34.9859,-27.8012 -1.61468,-5.61426 -1.90048,-8.18675 -2.05312,-18.48 -0.0789,-5.324 -0.0787,-9.680002 6.4e-4,-9.680002 0.0793,0 3.65734,0.436441 7.95128,0.969872 10.56157,1.312048 16.06428,2.189484 16.31936,2.602214 0.11683,0.189046 0.28237,3.026656 0.36785,6.305816 0.13755,5.27648 0.25455,6.29328 1.0174,8.8421 2.76328,9.23259 9.47471,14.25175 19.03375,14.23444 6.2758,-0.0114 10.27258,-1.53862 14.14185,-5.40391 1.81108,-1.80922 2.72817,-3.04603 3.5876,-4.83832 1.26662,-2.64152 2.4536,-7.07293 2.45712,-9.17333 0,-0.73761 0.13139,-1.42093 0.28925,-1.51849 0.30489,-0.18844 14.2288,3.55011 19.87299,5.33586 3.94285,1.24746 3.84925,1.07122 3.05264,5.74805 -3.2656,19.17215 -15.94951,30.62749 -36.40003,32.8743 -3.5829,0.39364 -11.1536,0.38465 -14.65261,-0.0174 z M 44.166433,150.16371 c 0.0036,-0.13404 2.712711,-7.29971 6.020384,-15.92371 l 6.013946,-15.68 6.859619,-2.29191 C 80.563669,110.41996 107.4598,103.76462 127.36,100.35741 c 2.07412,-0.35512 2.80558,-0.376865 3.08039,-0.0916 0.32861,0.34115 19.86811,48.27595 20.20775,49.57415 0.13768,0.52626 -0.60521,0.56 -12.33163,0.56 -9.60352,0 -12.5497,-0.0922 -12.78875,-0.4 -0.17084,-0.22 -2.43719,-6.304 -5.03635,-13.52 -2.59915,-7.216 -4.8464,-13.25019 -4.99387,-13.40931 -0.24825,-0.26784 -36.653589,2.53904 -37.5895,2.89818 -0.21767,0.0835 -2.248025,5.5787 -4.511901,12.21149 l -4.116137,12.05964 -12.560001,0.0837 c -6.908,0.046 -12.557104,-0.0259 -12.553568,-0.16 z"
             style="fill:#018ecf;stroke-width:0.31999999" />
          <g
             id="g301">
            <path
               style="fill:#003f52;stroke-width:0.31999999"
               d="m 124.64,375.9854 c -1.32444,-0.31686 -3.68,-1.26854 -3.68,-1.48675 0,-0.12579 1.29215,-2.74147 1.43772,-2.91037 0.0435,-0.0504 1.21159,0.28848 2.59582,0.75315 3.83271,1.28659 6.52646,0.69232 6.52646,-1.43984 0,-1.30297 -0.73916,-2.07664 -3.74284,-3.91763 -4.5969,-2.8175 -5.86021,-4.6743 -5.37619,-7.90192 0.38505,-2.56774 2.94119,-4.21933 6.49478,-4.19648 1.20186,0.008 5.24644,0.88861 5.5712,1.21338 0.14705,0.14704 -0.0354,0.9519 -0.40554,1.78857 -0.5248,1.1864 -0.79049,1.47149 -1.20715,1.29536 -1.28559,-0.54342 -3.83938,-1.00009 -4.80239,-0.85875 -1.3131,0.19274 -2.10087,1.27139 -1.70671,2.3369 0.16825,0.45481 1.72302,1.70838 3.92669,3.16595 4.47175,2.95779 5.08815,3.77344 5.08815,6.73302 0,2.56016 -0.73787,3.90192 -2.70383,4.91667 -1.4468,0.74676 -5.85259,1.02637 -8.01617,0.50874 z m 58.27309,-0.17306 c -2.85491,-0.90931 -4.90277,-2.59123 -6.20026,-5.09235 -1.19613,-2.30569 -1.38423,-6.58854 -0.40366,-9.19072 1.66592,-4.42086 6.59131,-7.08147 12.03099,-6.49894 2.04196,0.21869 5.25984,1.49229 5.25984,2.08179 0,0.27843 -1.56648,2.88787 -1.73361,2.88787 -0.0267,0 -0.90758,-0.30339 -1.95748,-0.67424 -5.33236,-1.88339 -10.20348,1.18493 -10.1544,6.39629 0.0277,2.94602 1.47122,5.20627 3.99958,6.26269 1.67752,0.70089 4.88422,0.62717 6.60086,-0.15178 0.76722,-0.34813 1.43754,-0.63296 1.48959,-0.63296 0.17287,0 1.75546,2.82861 1.75546,3.13757 0,0.16701 -0.756,0.63504 -1.68,1.0401 -2.18013,0.95574 -6.68799,1.17328 -9.00691,0.43468 z m 39.55008,0.009 c -2.00051,-0.5384 -2.94316,-1.00128 -2.94316,-1.44518 0,-0.17683 0.29814,-0.90589 0.66253,-1.62019 0.48051,-0.94186 0.81021,-1.25024 1.2,-1.1224 0.29561,0.0969 1.32947,0.46637 2.29747,0.82099 2.90626,1.06461 5.33815,0.72598 6.05296,-0.84285 0.6173,-1.35485 -0.0419,-2.36272 -2.58707,-3.95545 -5.33684,-3.33968 -6.09902,-4.20807 -6.28718,-7.16314 -0.16396,-2.57491 0.55793,-3.93683 2.56643,-4.84189 1.72597,-0.77776 5.44496,-0.78771 8.0156,-0.0214 l 1.84076,0.54867 -0.80614,1.59085 c -0.88085,1.73827 -0.88133,1.73863 -1.77183,1.26205 -1.104,-0.59085 -3.52556,-0.89354 -4.65456,-0.58179 -1.18078,0.32601 -1.76445,1.5384 -1.19401,2.48013 0.17007,0.28073 1.92751,1.59427 3.90542,2.91891 3.86955,2.59152 4.72969,3.58025 5.03173,5.78387 0.41176,3.00413 -1.19076,5.58403 -3.94337,6.34845 -1.67771,0.46589 -5.35698,0.3864 -7.38558,-0.15959 z m 22.17684,0.0682 c -4.75317,-1.57411 -7.14171,-4.5854 -7.45316,-9.39638 -0.33886,-5.2345 2.06152,-9.11277 6.72964,-10.87302 2.06484,-0.7786 6.9941,-0.71034 9.03271,0.12512 0.87406,0.3582 1.7206,0.85958 1.88121,1.1142 0.3648,0.57831 -1.24029,3.26061 -1.80763,3.02077 -4.1171,-1.74061 -7.55659,-1.40534 -9.95422,0.97024 -1.27396,1.26227 -1.78855,2.65242 -1.78855,4.83165 0,2.428 0.97395,4.38566 2.82016,5.66861 1.87883,1.3056 5.27955,1.53997 7.57993,0.5224 0.83669,-0.37011 1.56889,-0.67293 1.62709,-0.67293 0.19023,0 1.73282,2.76742 1.73282,3.1087 0,0.18288 -0.756,0.66391 -1.68,1.06896 -2.05943,0.90282 -6.71416,1.17594 -8.72,0.51168 z m 71.13703,0.003 c -2.96108,-0.83705 -5.29837,-2.83692 -6.59966,-5.64694 -1.03418,-2.23318 -1.15743,-6.01341 -0.27843,-8.54006 1.94201,-5.58234 9.01271,-8.23562 15.48935,-5.81242 0.92374,0.34563 1.76441,0.7657 1.86812,0.93354 0.15664,0.25344 -0.35728,1.26547 -1.4952,2.94454 -0.11244,0.16589 -1.05257,-0.0179 -2.16406,-0.42323 -4.30269,-1.56887 -8.60288,0.22701 -9.91296,4.13987 -1.09394,3.26733 0.51157,6.97741 3.63306,8.39546 1.77277,0.80534 5.01033,0.77894 6.8504,-0.0559 0.7742,-0.35126 1.42819,-0.60009 1.45331,-0.55299 0.025,0.0471 0.43568,0.69462 0.91235,1.43885 0.47667,0.74422 0.86669,1.48249 0.86669,1.64057 0,0.15812 -0.756,0.61402 -1.68,1.01316 -2.08279,0.89964 -6.66674,1.16905 -8.94297,0.52556 z M 47.030712,375.77548 c -0.0051,-0.14038 1.758889,-4.75501 3.92,-10.25466 l 3.929289,-9.99942 2.24,0.007 2.240001,0.007 3.84,9.7976 c 2.112,5.38867 3.887942,10.00026 3.946537,10.24803 0.08478,0.35843 -0.307334,0.43085 -1.919952,0.3545 l -2.026486,-0.096 -0.640048,-1.76048 c -0.352029,-0.96829 -0.756551,-1.94029 -0.898938,-2.16 -0.36631,-0.56528 -8.651709,-0.56486 -9.099792,0 -0.174374,0.22 -0.607366,1.192 -0.962202,2.16 l -0.645155,1.76 -1.956982,0.0953 c -1.07634,0.0524 -1.961162,-0.0195 -1.966272,-0.16 z m 13.017747,-7.94614 c 0.207648,-0.54112 -2.050778,-7.22324 -2.554973,-7.55952 -0.173494,-0.11572 -0.500739,-0.1393 -0.727209,-0.0524 -0.521149,0.2 -2.808336,7.00314 -2.566391,7.63363 0.267754,0.69776 5.580055,0.67802 5.848573,-0.0218 z m 10.671543,-2.05261 v -10.25674 h 1.579465 1.579463 l 4.849283,6.26109 c 2.667104,3.44358 5.066877,6.34454 5.332829,6.44662 0.265955,0.10205 0.610813,-0.0154 0.766355,-0.26108 0.155543,-0.24564 0.285012,-3.14663 0.287706,-6.44663 l 0.0049,-6 h 1.76 1.76 v 10.24 10.24 h -1.568249 -1.56825 l -4.889261,-6.32 c -2.689094,-3.476 -5.043382,-6.42566 -5.23175,-6.55478 -0.846935,-0.58064 -0.988455,0.20483 -1.14249,6.34102 l -0.16,6.37376 -1.68,0.0967 -1.68,0.0967 z m 24.32,-0.0503 v -10.27354 l 5.039998,0.13773 c 4.21927,0.11529 5.27986,0.24589 6.51294,0.80198 3.50985,1.58288 5.41695,4.42611 5.65751,8.43456 0.19503,3.24967 -0.46397,5.47818 -2.20477,7.45584 -2.42682,2.75703 -5.4083,3.71696 -11.544449,3.71696 h -3.461229 z m 8.834848,6.60105 c 2.86954,-0.85216 4.43503,-3.23757 4.42604,-6.74413 -0.0103,-4.00387 -1.98151,-6.27452 -5.98881,-6.8984 -1.36435,-0.21241 -2.31135,-0.2086 -2.890596,0.0115 l -0.861481,0.32752 v 6.50391 c 0,4.63197 0.110524,6.61446 0.384,6.88793 0.526726,0.52672 3.009227,0.48218 4.930847,-0.0885 z m 35.53849,3.45914 C 139.296,375.66934 139.2,371.06134 139.2,365.54665 v -10.02666 h 4.81028 c 5.12435,0 6.41551,0.27584 7.93576,1.69527 1.29069,1.20512 1.77136,2.48176 1.77136,4.70473 0,2.22723 -0.48872,3.52167 -1.76699,4.68 -1.33417,1.20903 -2.29346,1.51306 -5.48301,1.73783 -1.72294,0.12137 -3.23299,0.32112 -3.35568,0.4438 -0.1227,0.12269 -0.27695,1.79703 -0.3428,3.72071 l -0.11972,3.49766 h -1.51126 c -0.8312,0 -1.60727,-0.096 -1.7246,-0.21334 z m 7.85211,-10.67946 c 1.59497,-0.44297 2.49455,-1.6455 2.49455,-3.33456 0,-1.00793 -0.19396,-1.52329 -0.78077,-2.07459 -0.89314,-0.83904 -3.3371,-1.39498 -4.86909,-1.10758 -0.94487,0.17724 -1.06047,0.32656 -1.25446,1.62019 -0.29098,1.94035 -2.6e-4,4.596 0.54063,4.93856 0.59924,0.37949 2.42275,0.35968 3.86914,-0.042 z m 6.33747,10.8128 c 0.002,-0.044 1.7937,-4.616 3.98245,-10.16 l 3.97953,-10.08 2.22829,-0.0934 2.22828,-0.0934 3.90188,9.85341 c 2.14604,5.41939 3.97462,10.03344 4.06351,10.25344 0.11945,0.29565 -0.38315,0.4 -1.92653,0.4 h -2.08815 l -0.68293,-2.05222 c -0.37562,-1.12874 -0.90314,-2.13674 -1.17227,-2.24 -0.26912,-0.10327 -2.19377,-0.18778 -4.27698,-0.18778 -2.08321,0 -4.00785,0.0845 -4.27698,0.18778 -0.26912,0.10326 -0.79664,1.11126 -1.17226,2.24 l -0.68294,2.05222 h -2.05391 c -1.12965,0 -2.05259,-0.036 -2.05099,-0.08 z m 13.21412,-8.03129 c 0.091,-0.23722 -0.37659,-2.00122 -1.03914,-3.92 -1.0567,-3.06023 -1.29389,-3.48871 -1.93122,-3.48871 -0.62941,0 -0.86951,0.4065 -1.7956,3.04 -0.58798,1.672 -1.07401,3.436 -1.08006,3.92 l -0.011,0.88 h 2.84577 c 2.09157,0 2.88962,-0.1143 3.01127,-0.43129 z m 31.26297,-2.1218 v -10.24691 h 6.08 6.08 v 1.6 1.6 h -3.936 c -2.63467,0 -4.06296,0.12695 -4.32,0.384 -0.45487,0.45488 -0.50462,3.08935 -0.0713,3.776 0.23195,0.36759 1.13025,0.50538 3.8351,0.58832 l 3.53221,0.10832 v 1.41168 1.41168 h -3.33715 c -4.14756,0 -4.34483,0.14295 -4.33796,3.14285 0.003,1.17542 0.14117,2.35315 0.30772,2.61715 0.23797,0.37722 1.19967,0.50266 4.49158,0.58576 l 4.18877,0.10576 -0.0965,1.49424 -0.0965,1.49424 -6.16,0.0869 -6.16,0.0869 z m 61.65333,10.01975 c -0.11733,-0.11731 -0.21333,-4.72531 -0.21333,-10.24 v -10.02666 h 1.76 1.76 v 10.24 10.24 h -1.54667 c -0.85067,0 -1.64267,-0.096 -1.76,-0.21334 z m 9.06667,-10.02666 v -10.24 h 6.08 6.08 v 1.6 1.6 h -3.936 c -2.63467,0 -4.06296,0.12695 -4.32,0.384 -0.45487,0.45488 -0.50462,3.08935 -0.0713,3.776 0.23195,0.36759 1.13025,0.50538 3.8351,0.58832 l 3.53221,0.10832 v 1.41168 1.41168 h -3.33715 c -4.14755,0 -4.34483,0.14295 -4.33795,3.14285 0.003,1.17542 0.14116,2.35315 0.30771,2.61715 0.23657,0.37498 1.18066,0.5032 4.31511,0.58611 l 4.01228,0.10608 v 1.57392 1.57389 h -6.08 -6.08 z m 17.17333,10.02666 c -0.11733,-0.11731 -0.21333,-4.72531 -0.21333,-10.24 v -10.02666 l 1.68,0.003 1.68,0.003 4.93614,6.41043 c 3.24341,4.21213 5.10893,6.37722 5.44,6.31364 0.43463,-0.0835 0.51578,-0.96458 0.59062,-6.41268 l 0.0868,-6.31584 h 1.91773 1.91773 l -0.0845,10.16 -0.0845,10.16 -1.38365,0.0996 c -0.78509,0.0565 -1.59325,-0.0744 -1.86815,-0.30256 -0.26648,-0.22116 -2.57642,-3.10996 -5.1332,-6.41956 -4.6589,-6.03065 -5.56215,-6.83168 -5.97331,-5.29744 -0.10612,0.396 -0.19492,3.276 -0.19732,6.4 l -0.004,5.67805 h -1.54667 c -0.85067,0 -1.64267,-0.096 -1.76,-0.21334 z m 44.90667,-10.02666 v -10.24 h 6.08 6.08 v 1.6 1.6 h -3.936 c -2.63466,0 -4.06295,0.12695 -4.32,0.384 -0.2112,0.2112 -0.384,1.15075 -0.384,2.08794 0,1.53459 0.0816,1.73491 0.82083,2.016 0.45146,0.17161 2.17946,0.31206 3.84,0.31206 h 3.01917 v 1.44 1.44 h -3.456 c -2.26135,0 -3.58874,0.13274 -3.84,0.384 -0.23325,0.23325 -0.384,1.36711 -0.384,2.88794 0,2.39334 0.0362,2.51769 0.82083,2.816 0.45146,0.17161 2.39546,0.31206 4.32,0.31206 h 3.49917 v 1.6 1.6 h -6.08 -6.08 z M 166.3187,338.87295 c -3.45491,-0.87286 -6.46537,-3.48701 -7.48362,-6.4984 -0.7267,-2.14918 -0.72434,-5.64688 0.005,-7.80502 0.79269,-2.34471 2.89013,-4.56935 5.38349,-5.70993 1.76399,-0.80694 2.39636,-0.92337 5.05615,-0.93095 3.05799,-0.009 5.97949,0.69908 6.75814,1.63729 0.26309,0.31701 -0.48058,1.96013 -1.46027,3.22647 -0.0308,0.0398 -0.80498,-0.21219 -1.72037,-0.56 -1.85567,-0.70512 -4.04959,-0.80685 -5.9775,-0.27722 -2.40953,0.66195 -4.64,3.79847 -4.64,6.5248 0,2.72634 2.23047,5.86285 4.64,6.5248 1.92791,0.52963 4.12183,0.42791 5.9775,-0.27721 0.91539,-0.34781 1.68956,-0.59981 1.72037,-0.56 0.0308,0.0398 0.44404,0.69523 0.91828,1.45648 1.02599,1.64688 0.85392,1.99936 -1.35597,2.7776 -1.79561,0.63235 -6.14638,0.89449 -7.82148,0.47129 z m 53.86734,-0.16061 c -3.08791,-0.867 -5.21973,-2.68297 -6.54599,-5.57609 -0.96348,-2.10176 -0.95793,-7.22253 0.0102,-9.33543 2.17644,-4.75031 7.98329,-7.09648 13.84365,-5.5933 1.95452,0.50134 4.18716,1.59948 4.1853,2.05858 -3.2e-4,0.11764 -0.54048,0.8305 -1.2,1.5841 l -1.19913,1.37021 -1.40913,-0.70794 c -1.75831,-0.88339 -4.38157,-1.12144 -6.33404,-0.57478 -3.97847,1.11389 -5.77054,5.94422 -3.68584,9.93478 0.72128,1.38071 1.21584,1.87523 2.59654,2.59655 3.25515,1.70051 7.38311,0.88966 8.73524,-1.71584 0.96091,-1.85162 0.59694,-2.19319 -2.33701,-2.19319 h -2.52576 v -1.6 -1.6 h 4.68208 4.68208 l -0.1534,2.39034 c -0.26875,4.18758 -2.28196,7.31286 -5.60523,8.70141 -1.72009,0.71868 -5.6381,0.85062 -7.7395,0.2606 z M 47.175297,337.99999 c 0.112071,-0.308 1.88473,-4.844 3.939239,-10.08 l 3.735475,-9.52 2.254995,0.002 2.254996,0.002 3.84,9.78539 c 2.112,5.38198 3.888,9.91731 3.946665,10.0785 0.05867,0.16118 -0.812886,0.29305 -1.936784,0.29305 H 63.16643 l -0.590617,-1.68 c -0.324839,-0.924 -0.730919,-1.86 -0.902397,-2.08 -0.221728,-0.28448 -1.546083,-0.4 -4.585219,-0.4 -4.819776,0 -4.762832,-0.0285 -5.591204,2.8 l -0.398297,1.36 h -2.063584 c -1.82961,0 -2.04048,-0.0635 -1.859815,-0.56 z m 12.871313,-7.28608 c 0.246083,-0.64128 -2.165162,-7.54761 -2.708119,-7.75664 -0.23183,-0.0892 -0.550707,-0.0331 -0.708614,0.12483 -0.529863,0.52989 -2.639527,7.10269 -2.443607,7.61325 0.278557,0.72592 5.582455,0.74272 5.86034,0.0186 z m 11.313392,-2.26144 v -10.10754 l 5.2,0.11525 c 4.729894,0.10483 5.343427,0.18566 6.786499,0.89403 3.080048,1.51193 4.758765,3.85698 5.387149,7.52546 0.636131,3.7137 -1.029037,7.96016 -3.854691,9.83008 -2.303859,1.52464 -3.868384,1.85024 -8.890141,1.85024 h -4.628816 z m 8.329478,6.87559 c 3.140644,-0.67354 5.096468,-3.30157 5.096468,-6.84807 0,-3.62918 -1.961626,-6.19401 -5.261136,-6.87901 -0.986538,-0.2048 -2.347194,-0.27884 -3.02368,-0.16457 -1.050384,0.17747 -1.258535,0.35059 -1.425552,1.18569 -0.254541,1.27271 -0.253815,10.44672 9.6e-4,11.72042 0.264182,1.32093 1.659331,1.61898 4.612972,0.98554 z m 19.081499,2.99193 c -0.14066,-0.22995 -4.723201,-12.27213 -6.636641,-17.44 l -0.918236,-2.48 h 2.220448 2.220451 l 2.346797,7.28 c 3.158092,9.79671 2.946542,9.7905 6.053642,0.17821 l 2.35909,-7.29821 2.27298,-0.0932 2.27299,-0.0932 -3.00703,7.93322 c -1.65387,4.3633 -3.37703,8.90525 -3.82923,10.09325 l -0.82219,2.16 h -2.19314 c -1.206223,0 -2.259195,-0.108 -2.339931,-0.24 z m 12.173271,-1.10531 c 0.30295,-0.75606 2.08597,-5.26269 3.96226,-10.01469 l 3.41143,-8.64 2.25353,-0.0935 2.25353,-0.0935 2.93928,7.45346 c 1.6166,4.09942 3.42027,8.64784 4.00815,10.10765 l 1.06886,2.65417 -2.10227,-0.0942 -2.10226,-0.0942 -0.67969,-1.92 -0.6797,-1.92 H 120.64 116.00263 l -0.67969,1.92 -0.67969,1.92 -2.12491,0.0947 -2.12492,0.0947 z M 123.52,330.32617 c 0,-1.07261 -1.8587,-6.46935 -2.45042,-7.11475 -0.37719,-0.41143 -0.48348,-0.41143 -0.8716,0 -0.64546,0.68422 -2.77404,6.93436 -2.55554,7.50377 0.14688,0.38279 0.78494,0.4848 3.0318,0.4848 H 123.52 Z m 12.16,-1.84618 v -10.08 l 1.68,0.0208 1.68,0.0208 4.9125,6.39636 c 3.3738,4.39289 5.07773,6.36464 5.44,6.29504 0.4652,-0.0894 0.53775,-0.8473 0.61427,-6.41722 l 0.0868,-6.31584 h 1.75324 1.75323 v 10.08 10.08 l -1.68,-0.0118 -1.68,-0.0118 -4.48,-5.8144 c -5.44531,-7.06723 -5.49822,-7.12467 -6.10141,-6.62409 -0.36848,0.30582 -0.45859,1.56755 -0.45859,6.4214 v 6.04084 h -1.76 -1.76 v -10.08 z m 45.12,0 v -10.08 h 1.76 1.76 v 10.08 10.08 h -1.76 -1.76 z m 9.6,0 v -10.08 h 1.57662 1.57661 l 4.84464,6.25821 c 2.66455,3.44198 5.06561,6.34298 5.33568,6.44662 0.27008,0.10365 0.61831,-0.0125 0.77385,-0.2582 0.15554,-0.24564 0.28501,-3.14663 0.28771,-6.44663 l 0.005,-6 h 1.76 1.76 v 10.08 10.08 h -1.70865 -1.70865 l -4.77135,-6.22153 c -4.63952,-6.0496 -5.31192,-6.77658 -5.92023,-6.40061 -0.16012,0.0989 -0.29113,2.97942 -0.29113,6.40102 v 6.22112 h -1.76 -1.76 z m 57.92001,0 v -10.08 h 6.08 6.08 v 1.6 1.6 h -3.936 c -2.63467,0 -4.06296,0.12695 -4.32,0.384 -0.2112,0.2112 -0.384,1.0464 -0.384,1.856 0,0.8096 0.1728,1.6448 0.384,1.856 0.25126,0.25127 1.57866,0.384 3.84,0.384 h 3.456 v 1.6 1.6 h -3.456 c -2.26134,0 -3.58874,0.13274 -3.84,0.384 -0.53981,0.53981 -0.51024,4.87287 0.0363,5.3265 0.2391,0.19843 2.13628,0.38781 4.4,0.43917 l 3.97966,0.0903 0.0975,1.52 0.0975,1.52 h -6.25753 -6.25753 z m 15.68252,10 c 0.001,-0.044 1.76957,-4.544 3.92928,-10 l 3.92676,-9.92 2.25216,-0.0928 2.25217,-0.0928 3.89855,9.87534 c 2.14421,5.43142 3.89856,9.98006 3.89856,10.10809 0,0.12803 -0.89352,0.18992 -1.98559,0.13751 l -1.98559,-0.0953 -0.76241,-2 -0.7624,-2 h -4.41283 c -3.14794,0 -4.50364,0.11466 -4.72966,0.4 -0.17426,0.22 -0.56347,1.156 -0.8649,2.08 l -0.54806,1.68 h -2.05428 c -1.12986,0 -2.05315,-0.036 -2.05176,-0.08 z m 13.03013,-8.24 c 0.04,-0.44 -0.4651,-2.24 -1.12235,-4 -1.6364,-4.38195 -1.98257,-4.34211 -3.6531,0.42051 -0.69846,1.9913 -1.18842,3.83293 -1.0888,4.09255 0.14451,0.37657 0.74827,0.45331 2.98637,0.37949 2.73184,-0.0901 2.80713,-0.11348 2.87788,-0.89255 z m 11.60735,-1.78064 v -10.10061 l 5.54604,0.10063 5.54605,0.10062 1.20878,0.92285 c 2.34556,1.79072 3.07247,5.16592 1.69913,7.88934 -0.54513,1.08103 -1.12805,1.6465 -2.4,2.32813 -0.924,0.49517 -1.68,1.07415 -1.68,1.28663 0,0.21248 1.152,1.95542 2.56,3.87315 1.408,1.91776 2.56,3.53478 2.56,3.59337 0,0.0586 -0.98783,0.10653 -2.19518,0.10653 h -2.19517 l -2.66019,-4.0159 c -2.36876,-3.57597 -2.75053,-4.00541 -3.48483,-3.92 l -0.82463,0.0959 -0.0899,3.92 -0.0899,3.92 h -1.75015 -1.75015 z m 9.25082,-1.24425 c 1.87347,-0.96884 2.05435,-3.75024 0.32772,-5.03936 -0.98621,-0.73629 -3.95712,-1.08832 -5.17854,-0.6136 -0.86349,0.33558 -0.88,0.3927 -0.88,3.04326 0,1.8616 0.12433,2.75142 0.4,2.86266 0.89244,0.36012 4.4739,0.19014 5.33082,-0.25296 z m 14.35449,2.94489 -0.0853,-8.4 -2.72,-0.16 -2.72,-0.16 -0.0975,-1.52 -0.0975,-1.52 h 7.53754 7.53753 v 1.6 1.6 h -2.56792 c -2.46205,0 -2.58079,0.0339 -2.88,0.82083 -0.17165,0.45146 -0.31208,4.26746 -0.31208,8.48 v 7.65917 h -1.75469 -1.75468 z m 13.51469,-1.68 v -10.08 h 1.76 1.76 v 3.616 c 0,2.38579 0.13065,3.74666 0.384,4 0.53414,0.53415 8.93785,0.53415 9.472,0 0.25334,-0.25334 0.384,-1.61421 0.384,-4 v -3.616 h 1.76 1.76 v 10.08 10.08 h -1.76 -1.76 v -4.096 c 0,-2.7591 -0.12535,-4.22134 -0.384,-4.48 -0.53415,-0.53414 -8.93786,-0.53414 -9.472,0 -0.25866,0.25866 -0.384,1.7209 -0.384,4.48 v 4.096 h -1.76 -1.76 z M 62.829688,102.03878 c 1.524486,-4.018834 20.39378,-53.124477 20.892941,-54.372007 l 0.509879,-1.27431 12.192438,0.08377 12.192434,0.08377 8.41162,20.773023 c 4.62639,11.425162 8.37548,20.798729 8.33131,20.830147 -0.0442,0.03142 -1.80831,0.369014 -3.92031,0.750218 -2.112,0.3812 -6.6891,1.286531 -10.17134,2.01184 -3.48224,0.725312 -6.38286,1.263852 -6.44581,1.196758 -0.063,-0.06709 -1.72322,-4.576957 -3.68947,-10.021917 -1.966254,-5.444963 -3.719358,-10.169651 -3.895784,-10.499305 -0.808637,-1.510953 -1.303264,-0.431773 -5.598931,12.215805 -2.356826,6.939113 -4.323373,12.654806 -4.370106,12.701538 -0.04673,0.04673 -2.529277,0.755063 -5.516762,1.574064 -4.827024,1.3233 -17.620039,5.178596 -19.123645,5.763096 -0.514778,0.20011 -0.494666,0.0188 0.201536,-1.81649 z m 281.170322,-0.46746 c -1.8113,-0.58598 -14.95379,-4.32835 -18.48,-5.262247 l -2.64,-0.699187 V 71.004942 46.399999 h 11.68 11.68 v 27.839999 c 0,22.070083 -0.0829,27.835562 -0.4,27.818592 -0.22,-0.0118 -1.048,-0.23104 -1.84,-0.48727 z m -66.88,-15.204119 c -2.92381,-0.469824 -18.4334,-2.527203 -19.05138,-2.527203 -0.0817,0 -0.14862,-8.424 -0.14862,-18.72 V 46.399999 h 12 12 v 20.319999 c 0,19.154563 -0.0321,20.317664 -0.56,20.27927 -0.308,-0.0224 -2.216,-0.306832 -4.24,-0.632067 z M 145.92,84.779412 c 0,-0.687555 1.30512,-5.451302 2.12019,-7.738783 0.45478,-1.276346 1.68039,-3.976631 2.72357,-6.000631 7.66354,-14.868899 22.25617,-24.154902 41.49519,-26.40541 13.84718,-1.619792 27.521,0.472403 38.59761,5.905718 4.1197,2.020803 10.42345,5.94223 10.42345,6.484208 0,0.303097 -10.58299,14.746761 -13.01097,17.757372 l -1.0822,1.341885 -2.57761,-1.72529 c -3.11314,-2.08375 -7.59186,-4.309718 -10.84922,-5.392179 -9.00055,-2.990988 -19.25254,-2.751347 -27.30593,0.638279 -4.80906,2.024108 -9.86513,6.309468 -12.52111,10.612483 -1.3927,2.256352 -0.89403,2.086416 -7.69297,2.62159 -4.99904,0.393498 -18.48322,1.82951 -19.6,2.087322 -0.41178,0.09506 -0.72,0.0152 -0.72,-0.186564 z"
               id="path40"
               inkscape:connector-curvature="0" />
          </g>
        </g>
        <path
           inkscape:connector-curvature="0"
           id="path4665"
           d="M 284.23865,34.377961 V 248.74213"
           style="fill:none;stroke:#003f52;stroke-width:3.30015087;stroke-linecap:butt;stroke-linejoin:miter;stroke-miterlimit:4;stroke-dasharray:none;stroke-opacity:1" />
        <g
           aria-label="Hydrological
Uncertainty"
           style="font-style:normal;font-weight:normal;font-size:49.09613037px;line-height:1.25;font-family:sans-serif;letter-spacing:0px;word-spacing:0px;fill:#003f52;fill-opacity:1;stroke:none;stroke-width:1.22740328"
           id="text5473">
          <path
             sodipodi:type="inkscape:offset"
             inkscape:radius="0"
             inkscape:original="M 413.93164 90.707031 L 413.93164 102.08984 L 413.84961 102.08984 C 412.94231 100.60518 410.96235 99.449219 408.19922 99.449219 C 403.37406 99.449219 399.16774 103.44964 399.20898 110.17188 C 399.20898 116.35798 403.00318 120.44141 407.78711 120.44141 C 410.7152 120.44141 413.14971 119.0395 414.3457 116.8125 L 414.42773 116.8125 L 414.63281 119.98828 L 419.16992 119.98828 C 419.08742 118.62733 419.00586 116.39992 419.00586 114.33789 L 419.00586 90.707031 L 413.93164 90.707031 z M 461.94727 90.707031 L 461.94727 119.98828 L 467.06055 119.98828 L 467.06055 90.707031 L 461.94727 90.707031 z M 569.31641 90.707031 L 569.31641 119.98828 L 574.43164 119.98828 L 574.43164 90.707031 L 569.31641 90.707031 z M 521.85352 91.53125 C 520.16265 91.53125 519.00781 92.727773 519.00781 94.294922 C 519.00781 95.82083 520.12163 97.015625 521.8125 97.015625 C 523.58585 97.015625 524.69922 95.82083 524.69922 94.294922 C 524.65802 92.727773 523.58563 91.53125 521.85352 91.53125 z M 352.76758 92.191406 L 352.76758 119.98828 L 357.83984 119.98828 L 357.83984 107.73828 L 369.59375 107.73828 L 369.59375 119.98828 L 374.66602 119.98828 L 374.66602 92.191406 L 369.59375 92.191406 L 369.59375 103.32617 L 357.83984 103.32617 L 357.83984 92.191406 L 352.76758 92.191406 z M 434.47266 99.449219 C 432.32814 99.449219 429.97805 100.89267 428.98828 103.73828 L 428.82422 103.73828 L 428.6582 99.902344 L 424.24609 99.902344 C 424.36981 101.71694 424.41016 103.65702 424.41016 106.37891 L 424.41016 119.98828 L 429.48438 119.98828 L 429.48438 109.5957 C 429.48438 109.01833 429.56598 108.48099 429.64844 108.02734 C 430.10209 105.7591 431.75235 104.19141 434.18555 104.19141 C 434.80416 104.19141 435.25751 104.27496 435.66992 104.35742 L 435.66992 99.574219 C 435.25751 99.491739 434.96754 99.449219 434.47266 99.449219 z M 447.78125 99.449219 C 441.71886 99.449219 437.38867 103.49132 437.38867 110.08984 C 437.38867 116.52339 441.75995 120.44141 447.45117 120.44141 C 452.56503 120.44141 457.76172 117.14187 457.76172 109.75977 C 457.76172 103.65614 453.76116 99.449219 447.78125 99.449219 z M 481.69336 99.449219 C 475.63097 99.449219 471.30078 103.49132 471.30078 110.08984 C 471.30078 116.52339 475.67206 120.44141 481.36328 120.44141 C 486.47714 120.44141 491.67383 117.14187 491.67383 109.75977 C 491.67383 103.65614 487.67327 99.449219 481.69336 99.449219 z M 503.69336 99.449219 C 498.86819 99.449219 494.57812 103.45031 494.57812 110.04883 C 494.57812 115.74005 498.1251 119.86328 503.11523 119.86328 C 505.75464 119.86328 507.81792 118.66788 508.97266 116.89453 L 509.05469 116.89453 L 509.05469 118.62695 C 509.05469 122.95723 506.58051 124.68945 503.28125 124.68945 C 500.84805 124.68945 498.70229 123.90444 497.42383 123.16211 L 496.31055 126.99805 C 498.04266 128.0703 500.76535 128.60742 503.32227 128.60742 C 506.0854 128.60742 508.97095 128.02966 511.07422 126.17383 C 513.1775 124.27676 514.04492 121.26515 514.04492 117.05859 L 514.04492 105.67773 C 514.04492 102.9146 514.12652 101.26329 514.20898 99.902344 L 509.79688 99.902344 L 509.58984 102.58398 L 509.50781 102.58398 C 508.55927 100.93435 506.74518 99.449219 503.69336 99.449219 z M 539.74609 99.449219 C 532.69392 99.449219 528.57031 104.15073 528.57031 110.17188 C 528.57031 116.39923 532.65329 120.44141 538.92188 120.44141 C 541.43756 120.44141 543.54102 119.86403 544.61328 119.36914 L 543.91211 115.61523 C 542.92234 116.02764 541.68546 116.40039 539.91211 116.40039 C 536.44789 116.40039 533.76563 114.04791 533.76562 109.92383 C 533.72442 106.25341 536.03548 103.4082 539.91211 103.4082 C 541.7267 103.4082 542.92128 103.82024 543.74609 104.19141 L 544.6543 100.39844 C 543.49956 99.862309 541.60192 99.449219 539.74609 99.449219 z M 555.67383 99.449219 C 552.49829 99.449219 549.90068 100.31536 548.41602 101.22266 L 549.40625 104.52148 C 550.7672 103.65542 552.82904 103.03711 554.80859 103.03711 C 558.3553 103.03711 558.89062 105.22327 558.89062 106.54297 L 558.89062 106.87305 C 551.46728 106.83185 546.97266 109.38833 546.97266 114.46094 C 546.97266 117.51275 549.24161 120.44141 553.2832 120.44141 C 555.88137 120.44141 557.98348 119.32692 559.2207 117.75977 L 559.34375 117.75977 L 559.67383 119.98828 L 564.25195 119.98828 C 564.04575 118.75106 563.96289 116.9767 563.96289 115.16211 L 563.96289 107.9043 C 563.96289 103.53278 562.10739 99.449219 555.67383 99.449219 z M 378.03906 99.902344 L 385.38086 118.33789 C 385.6283 118.83278 385.66992 119.12192 385.66992 119.32812 C 385.66992 119.57556 385.54604 119.86322 385.33984 120.23438 C 384.63874 121.59533 383.5247 122.79155 382.57617 123.41016 C 381.54515 124.15249 380.47348 124.60629 379.60742 124.8125 L 380.76172 129.10156 C 382.04019 128.9366 384.10247 128.27726 386.08203 126.50391 C 388.47399 124.44187 390.32867 121.10152 393.0918 113.5957 L 398.12305 99.902344 L 392.67969 99.902344 L 389.54492 110.625 C 389.17376 111.9447 388.80259 113.42924 388.47266 114.58398 L 388.34961 114.58398 C 388.06092 113.42924 387.64874 111.90519 387.23633 110.66797 L 383.60742 99.902344 L 378.03906 99.902344 z M 519.29688 99.902344 L 519.29688 119.98828 L 524.41016 119.98828 L 524.41016 99.902344 L 519.29688 99.902344 z M 447.6582 103.16211 C 451.12242 103.16211 452.52539 106.74852 452.52539 109.88281 C 452.52539 113.92441 450.50404 116.77148 447.61719 116.77148 C 444.52413 116.77148 442.62695 113.84343 442.62695 109.9668 C 442.62695 106.6263 444.07025 103.16211 447.6582 103.16211 z M 481.56836 103.16211 C 485.03258 103.16211 486.43555 106.74852 486.43555 109.88281 C 486.43555 113.92441 484.41419 116.77148 481.52734 116.77148 C 478.43428 116.77148 476.53711 113.84343 476.53711 109.9668 C 476.53711 106.6263 477.98041 103.16211 481.56836 103.16211 z M 504.68359 103.32617 C 506.82811 103.32617 508.27051 104.72815 508.80664 106.58398 C 508.93037 106.99639 508.97266 107.49166 508.97266 107.94531 L 508.97266 111.20312 C 508.97266 111.7805 508.88934 112.48145 508.76562 113.01758 C 508.18826 114.83217 506.53769 116.07031 504.64062 116.07031 C 501.46508 116.07031 499.73437 113.3058 499.73438 109.88281 C 499.73438 105.79998 501.83798 103.32617 504.68359 103.32617 z M 409.4375 103.36719 C 411.74698 103.36719 413.35494 104.97553 413.80859 106.95508 C 413.89109 107.36749 413.93164 107.86299 413.93164 108.27539 L 413.93164 111.28516 C 413.93164 111.82129 413.89134 112.31588 413.76758 112.76953 C 413.27269 114.95529 411.45851 116.35742 409.39648 116.35742 C 406.1797 116.35742 404.36523 113.67823 404.36523 110.00781 C 404.36523 106.2549 406.17948 103.36719 409.4375 103.36719 z M 559.01562 110.17188 L 559.01562 112.93555 C 559.01562 113.26548 558.97337 113.67766 558.84961 114.04883 C 558.39596 115.49226 556.91143 116.8125 554.89062 116.8125 C 553.28224 116.8125 552.00391 115.90533 552.00391 113.92578 C 552.00391 110.87396 555.42768 110.0894 559.01562 110.17188 z M 504.89844 152.90234 C 503.20757 152.90234 502.05273 154.09692 502.05273 155.66406 C 502.05273 157.18997 503.16655 158.38672 504.85742 158.38672 C 506.63077 158.38672 507.74414 157.18997 507.74414 155.66406 C 507.70294 154.09692 506.63055 152.90234 504.89844 152.90234 z M 360.98242 153.56055 L 360.98242 169.48047 C 360.98242 178.22351 365.14848 181.81055 371.58203 181.81055 C 378.26303 181.81055 382.67578 178.01753 382.67578 169.43945 L 382.67578 153.56055 L 377.60352 153.56055 L 377.60352 169.76953 C 377.60352 175.21331 375.41651 177.72852 371.74609 177.72852 C 368.3231 177.72852 366.05469 175.21331 366.05469 169.76953 L 366.05469 153.56055 L 360.98242 153.56055 z M 472.71484 156.11914 L 467.76562 157.5625 L 467.76562 161.27344 L 464.87891 161.27344 L 464.87891 165.06836 L 467.76562 165.06836 L 467.76562 174.51172 C 467.76562 177.15112 468.26172 178.96635 469.33398 180.12109 C 470.28252 181.15211 471.84925 181.81055 473.70508 181.81055 C 475.31347 181.81055 476.63266 181.56407 477.375 181.27539 L 477.29297 177.39844 C 476.7156 177.5634 476.26104 177.64648 475.3125 177.64648 C 473.37419 177.64648 472.71484 176.36679 472.71484 173.93359 L 472.71484 165.06836 L 477.54102 165.06836 L 477.54102 161.27344 L 472.71484 161.27344 L 472.71484 156.11914 z M 542.06641 156.11914 L 537.11914 157.5625 L 537.11914 161.27344 L 534.23047 161.27344 L 534.23047 165.06836 L 537.11914 165.06836 L 537.11914 174.51172 C 537.11914 177.15112 537.61329 178.96635 538.68555 180.12109 C 539.63409 181.15211 541.20081 181.81055 543.05664 181.81055 C 544.66503 181.81055 545.98422 181.56407 546.72656 181.27539 L 546.64453 177.39844 C 546.06716 177.5634 545.61456 177.64648 544.66602 177.64648 C 542.7277 177.64648 542.06641 176.36679 542.06641 173.93359 L 542.06641 165.06836 L 546.89258 165.06836 L 546.89258 161.27344 L 542.06641 161.27344 L 542.06641 156.11914 z M 399.33789 160.82031 C 395.99739 160.82031 393.81136 162.71605 392.94531 164.2832 L 392.82227 164.2832 L 392.57422 161.27344 L 388.11914 161.27344 C 388.24286 163.00555 388.28516 164.94443 388.28516 167.25391 L 388.28516 181.35742 L 393.39844 181.35742 L 393.39844 169.5625 C 393.39844 168.98513 393.44046 168.3677 393.60547 167.91406 C 394.1416 166.38815 395.54365 164.94336 397.56445 164.94336 C 400.32758 164.94336 401.39844 167.12877 401.39844 170.01562 L 401.39844 181.35742 L 406.47266 181.35742 L 406.47266 169.43945 C 406.47266 163.08838 402.84336 160.82031 399.33789 160.82031 z M 421.7832 160.82031 C 414.73103 160.82031 410.60742 165.52182 410.60742 171.54297 C 410.60742 177.77033 414.69039 181.81055 420.95898 181.81055 C 423.47467 181.81055 425.57814 181.23317 426.65039 180.73828 L 425.94922 176.98633 C 424.95944 177.39874 423.72257 177.76953 421.94922 177.76953 C 418.485 177.76953 415.80273 175.41899 415.80273 171.29492 C 415.76153 167.62449 418.07259 164.7793 421.94922 164.7793 C 423.76381 164.7793 424.95838 165.19134 425.7832 165.5625 L 426.69141 161.76758 C 425.53666 161.23146 423.63903 160.82031 421.7832 160.82031 z M 438.54492 160.82031 C 432.11136 160.82031 428.73047 166.0575 428.73047 171.625 C 428.73047 177.76988 432.56599 181.81055 439.08203 181.81055 C 441.96888 181.81055 444.36164 181.23429 446.09375 180.5332 L 445.34961 177.02734 C 443.8237 177.60471 442.13392 177.93555 439.7832 177.93555 C 436.56642 177.93555 433.72138 176.36747 433.59766 172.73828 L 447.04102 172.73828 C 447.12352 172.28464 447.20703 171.54228 447.20703 170.59375 C 447.20703 166.18098 445.1022 160.82031 438.54492 160.82031 z M 461.33594 160.82031 C 459.19142 160.82031 456.84134 162.26376 455.85156 165.10938 L 455.68555 165.10938 L 455.52148 161.27344 L 451.10938 161.27344 C 451.23309 163.08803 451.27344 165.02616 451.27344 167.74805 L 451.27344 181.35742 L 456.3457 181.35742 L 456.3457 170.96484 C 456.3457 170.38747 456.42926 169.85209 456.51172 169.39844 C 456.96537 167.1302 458.61367 165.5625 461.04688 165.5625 C 461.66548 165.5625 462.12079 165.64409 462.5332 165.72656 L 462.5332 160.94336 C 462.12079 160.86086 461.83083 160.82031 461.33594 160.82031 z M 488.69922 160.82031 C 485.52369 160.82031 482.92412 161.68645 481.43945 162.59375 L 482.42969 165.89258 C 483.79063 165.02652 485.85247 164.4082 487.83203 164.4082 C 491.37873 164.4082 491.91602 166.59435 491.91602 167.91406 L 491.91602 168.24219 C 484.49269 168.20099 479.99609 170.75942 479.99609 175.83203 C 479.99609 178.88385 482.26505 181.81055 486.30664 181.81055 C 488.90481 181.81055 491.00692 180.69801 492.24414 179.13086 L 492.36914 179.13086 L 492.69922 181.35742 L 497.27734 181.35742 C 497.07114 180.1202 496.98828 178.3478 496.98828 176.5332 L 496.98828 169.27344 C 496.98828 164.90192 495.13278 160.82031 488.69922 160.82031 z M 523.94531 160.82031 C 520.60481 160.82031 518.41879 162.71605 517.55273 164.2832 L 517.42969 164.2832 L 517.18164 161.27344 L 512.72852 161.27344 C 512.85224 163.00555 512.89258 164.94443 512.89258 167.25391 L 512.89258 181.35742 L 518.00781 181.35742 L 518.00781 169.5625 C 518.00781 168.98513 518.04789 168.3677 518.21289 167.91406 C 518.74902 166.38815 520.15107 164.94336 522.17188 164.94336 C 524.93501 164.94336 526.00781 167.12877 526.00781 170.01562 L 526.00781 181.35742 L 531.08008 181.35742 L 531.08008 169.43945 C 531.08008 163.08838 527.45077 160.82031 523.94531 160.82031 z M 502.3418 161.27344 L 502.3418 181.35742 L 507.45508 181.35742 L 507.45508 161.27344 L 502.3418 161.27344 z M 548.68164 161.27344 L 556.02148 179.70898 C 556.26892 180.20387 556.31055 180.49107 556.31055 180.69727 C 556.31055 180.94471 556.18667 181.2343 555.98047 181.60547 C 555.27938 182.96641 554.16534 184.16264 553.2168 184.78125 C 552.18578 185.52359 551.11411 185.97738 550.24805 186.18359 L 551.40234 190.47266 C 552.6808 190.30769 554.74311 189.6464 556.72266 187.87305 C 559.11463 185.81101 560.97125 182.47066 563.73438 174.96484 L 568.76562 161.27344 L 563.32227 161.27344 L 560.1875 171.99609 C 559.81633 173.31579 559.44515 174.80034 559.11523 175.95508 L 558.99219 175.95508 C 558.70351 174.80034 558.28936 173.27433 557.87695 172.03711 L 554.24805 161.27344 L 548.68164 161.27344 z M 438.25781 164.2832 C 441.63955 164.2832 442.46312 167.33558 442.42188 169.19141 L 433.59766 169.19141 C 433.80386 167.12937 435.12351 164.2832 438.25781 164.2832 z M 492.03906 171.54297 L 492.03906 174.30469 C 492.03906 174.63462 491.99681 175.04876 491.87305 175.41992 C 491.4194 176.86335 489.93486 178.18164 487.91406 178.18164 C 486.30567 178.18164 485.02734 177.27448 485.02734 175.29492 C 485.02734 172.24311 488.45112 171.46049 492.03906 171.54297 z "
             style="font-style:normal;font-variant:normal;font-weight:600;font-stretch:normal;font-size:41.24074936px;font-family:'Myriad Pro';-inkscape-font-specification:'Myriad Pro Semi-Bold';text-align:center;text-anchor:middle;stroke-width:1.22740328"
             id="path380"
             d="m 413.93164,90.707031 v 11.382809 h -0.082 c -0.9073,-1.48466 -2.88726,-2.640621 -5.65039,-2.640621 -4.82516,0 -9.03148,4.000421 -8.99024,10.722661 0,6.1861 3.7942,10.26953 8.57813,10.26953 2.92809,0 5.3626,-1.40191 6.55859,-3.62891 h 0.082 l 0.20508,3.17578 h 4.53711 c -0.0825,-1.36095 -0.16406,-3.58836 -0.16406,-5.65039 V 90.707031 Z m 48.01563,0 v 29.281249 h 5.11328 V 90.707031 Z m 107.36914,0 v 29.281249 h 5.11523 V 90.707031 Z m -47.46289,0.824219 c -1.69087,0 -2.84571,1.196523 -2.84571,2.763672 0,1.525908 1.11382,2.720703 2.80469,2.720703 1.77335,0 2.88672,-1.194795 2.88672,-2.720703 -0.0412,-1.567149 -1.11359,-2.763672 -2.8457,-2.763672 z m -169.08594,0.660156 v 27.796874 h 5.07226 v -12.25 h 11.75391 v 12.25 h 5.07227 V 92.191406 h -5.07227 V 103.32617 H 357.83984 V 92.191406 Z m 81.70508,7.257813 c -2.14452,0 -4.49461,1.443451 -5.48438,4.289061 h -0.16406 l -0.16602,-3.835936 h -4.41211 c 0.12372,1.814596 0.16407,3.754676 0.16407,6.476566 v 13.60937 h 5.07422 V 109.5957 c 0,-0.57737 0.0816,-1.11471 0.16406,-1.56836 0.45365,-2.26824 2.10391,-3.83593 4.53711,-3.83593 0.61861,0 1.07196,0.0835 1.48437,0.16601 v -4.783201 c -0.41241,-0.08248 -0.70238,-0.125 -1.19726,-0.125 z m 13.30859,0 c -6.06239,0 -10.39258,4.042101 -10.39258,10.640621 0,6.43355 4.37128,10.35157 10.0625,10.35157 5.11386,0 10.31055,-3.29954 10.31055,-10.68164 0,-6.10363 -4.00056,-10.310551 -9.98047,-10.310551 z m 33.91211,0 c -6.06239,0 -10.39258,4.042101 -10.39258,10.640621 0,6.43355 4.37128,10.35157 10.0625,10.35157 5.11386,0 10.31055,-3.29954 10.31055,-10.68164 0,-6.10363 -4.00056,-10.310551 -9.98047,-10.310551 z m 22,0 c -4.82517,0 -9.11524,4.001091 -9.11524,10.599611 0,5.69122 3.54698,9.81445 8.53711,9.81445 2.63941,0 4.70269,-1.1954 5.85743,-2.96875 h 0.082 v 1.73242 c 0,4.33028 -2.47418,6.0625 -5.77344,6.0625 -2.4332,0 -4.57896,-0.78501 -5.85742,-1.52734 l -1.11328,3.83594 c 1.73211,1.07225 4.4548,1.60937 7.01172,1.60937 2.76313,0 5.64868,-0.57776 7.75195,-2.43359 2.10328,-1.89707 2.9707,-4.90868 2.9707,-9.11524 v -11.38086 c 0,-2.76313 0.0816,-4.41444 0.16406,-5.775386 h -4.4121 l -0.20704,2.681636 h -0.082 c -0.94854,-1.64963 -2.76263,-3.134761 -5.81445,-3.134761 z m 36.05273,0 c -7.05217,0 -11.17578,4.701511 -11.17578,10.722661 0,6.22735 4.08298,10.26953 10.35157,10.26953 2.51568,0 4.61914,-0.57738 5.6914,-1.07227 l -0.70117,-3.75391 c -0.98977,0.41241 -2.22665,0.78516 -4,0.78516 -3.46422,0 -6.14648,-2.35248 -6.14649,-6.47656 -0.0412,-3.67042 2.26986,-6.51563 6.14649,-6.51563 1.81459,0 3.00917,0.41204 3.83398,0.78321 l 0.90821,-3.79297 c -1.15474,-0.536131 -3.05238,-0.949221 -4.90821,-0.949221 z m 15.92774,0 c -3.17554,0 -5.77315,0.866141 -7.25781,1.773441 l 0.99023,3.29882 c 1.36095,-0.86606 3.42279,-1.48437 5.40234,-1.48437 3.54671,0 4.08203,2.18616 4.08203,3.50586 v 0.33008 c -7.42334,-0.0412 -11.91796,2.51528 -11.91796,7.58789 0,3.05181 2.26895,5.98047 6.31054,5.98047 2.59817,0 4.70028,-1.11449 5.9375,-2.68164 h 0.12305 l 0.33008,2.22851 h 4.57812 c -0.2062,-1.23722 -0.28906,-3.01158 -0.28906,-4.82617 v -7.25781 c 0,-4.37152 -1.8555,-8.455081 -8.28906,-8.455081 z m -177.63477,0.453125 7.3418,18.435546 c 0.24744,0.49489 0.28906,0.78403 0.28906,0.99023 0,0.24744 -0.12388,0.5351 -0.33008,0.90626 -0.7011,1.36095 -1.81514,2.55717 -2.76367,3.17578 -1.03102,0.74233 -2.10269,1.19613 -2.96875,1.40234 l 1.1543,4.28906 c 1.27847,-0.16496 3.34075,-0.8243 5.32031,-2.59765 2.39196,-2.06204 4.24664,-5.40239 7.00977,-12.90821 l 5.03125,-13.693356 h -5.44336 L 389.54492,110.625 c -0.37116,1.3197 -0.74233,2.80424 -1.07226,3.95898 h -0.12305 c -0.28869,-1.15474 -0.70087,-2.67879 -1.11328,-3.91601 l -3.62891,-10.765626 z m 141.25782,0 v 20.085936 h 5.11328 V 99.902344 Z m -71.63868,3.259766 c 3.46422,0 4.86719,3.58641 4.86719,6.7207 0,4.0416 -2.02135,6.88867 -4.9082,6.88867 -3.09306,0 -4.99024,-2.92805 -4.99024,-6.80468 0,-3.3405 1.4433,-6.80469 5.03125,-6.80469 z m 33.91016,0 c 3.46422,0 4.86719,3.58641 4.86719,6.7207 0,4.0416 -2.02136,6.88867 -4.90821,6.88867 -3.09306,0 -4.99023,-2.92805 -4.99023,-6.80468 0,-3.3405 1.4433,-6.80469 5.03125,-6.80469 z m 23.11523,0.16406 c 2.14452,0 3.58692,1.40198 4.12305,3.25781 0.12373,0.41241 0.16602,0.90768 0.16602,1.36133 v 3.25781 c 0,0.57738 -0.0833,1.27833 -0.20704,1.81446 -0.57736,1.81459 -2.22793,3.05273 -4.125,3.05273 -3.17554,0 -4.90625,-2.76451 -4.90624,-6.1875 0,-4.08283 2.1036,-6.55664 4.94921,-6.55664 z m -95.24609,0.041 c 2.30948,0 3.91744,1.60834 4.37109,3.58789 0.0825,0.41241 0.12305,0.90791 0.12305,1.32031 v 3.00977 c 0,0.53613 -0.0403,1.03072 -0.16406,1.48437 -0.49489,2.18576 -2.30907,3.58789 -4.3711,3.58789 -3.21678,0 -5.03125,-2.67919 -5.03125,-6.34961 0,-3.75291 1.81425,-6.64062 5.07227,-6.64062 z m 149.57812,6.80469 v 2.76367 c 0,0.32993 -0.0422,0.74211 -0.16601,1.11328 -0.45365,1.44343 -1.93818,2.76367 -3.95899,2.76367 -1.60838,0 -2.88671,-0.90717 -2.88671,-2.88672 0,-3.05182 3.42377,-3.83638 7.01171,-3.7539 z m -54.11718,42.73046 c -1.69087,0 -2.84571,1.19458 -2.84571,2.76172 0,1.52591 1.11382,2.72266 2.80469,2.72266 1.77335,0 2.88672,-1.19675 2.88672,-2.72266 -0.0412,-1.56714 -1.11359,-2.76172 -2.8457,-2.76172 z m -143.91602,0.65821 v 15.91992 c 0,8.74304 4.16606,12.33008 10.59961,12.33008 6.681,0 11.09375,-3.79302 11.09375,-12.3711 v -15.8789 h -5.07226 v 16.20898 c 0,5.44378 -2.18701,7.95899 -5.85743,7.95899 -3.42299,0 -5.6914,-2.51521 -5.6914,-7.95899 v -16.20898 z m 111.73242,2.55859 -4.94922,1.44336 v 3.71094 h -2.88671 v 3.79492 h 2.88671 v 9.44336 c 0,2.6394 0.4961,4.45463 1.56836,5.60937 0.94854,1.03102 2.51527,1.68946 4.3711,1.68946 1.60839,0 2.92758,-0.24648 3.66992,-0.53516 l -0.082,-3.87695 c -0.57737,0.16496 -1.03193,0.24804 -1.98047,0.24804 -1.93831,0 -2.59766,-1.27969 -2.59766,-3.71289 v -8.86523 h 4.82618 v -3.79492 h -4.82618 z m 69.35157,0 -4.94727,1.44336 v 3.71094 h -2.88867 v 3.79492 h 2.88867 v 9.44336 c 0,2.6394 0.49415,4.45463 1.56641,5.60937 0.94854,1.03102 2.51526,1.68946 4.37109,1.68946 1.60839,0 2.92758,-0.24648 3.66992,-0.53516 l -0.082,-3.87695 c -0.57737,0.16496 -1.02997,0.24804 -1.97851,0.24804 -1.93832,0 -2.59961,-1.27969 -2.59961,-3.71289 v -8.86523 h 4.82617 v -3.79492 h -4.82617 z m -142.72852,4.70117 c -3.3405,0 -5.52653,1.89574 -6.39258,3.46289 h -0.12304 l -0.24805,-3.00976 h -4.45508 c 0.12372,1.73211 0.16602,3.67099 0.16602,5.98047 v 14.10351 h 5.11328 V 169.5625 c 0,-0.57737 0.042,-1.1948 0.20703,-1.64844 0.53613,-1.52591 1.93818,-2.9707 3.95898,-2.9707 2.76313,0 3.83399,2.18541 3.83399,5.07226 v 11.3418 h 5.07422 v -11.91797 c 0,-6.35107 -3.6293,-8.61914 -7.13477,-8.61914 z m 22.44531,0 c -7.05217,0 -11.17578,4.70151 -11.17578,10.72266 0,6.22736 4.08297,10.26758 10.35156,10.26758 2.51569,0 4.61916,-0.57738 5.69141,-1.07227 l -0.70117,-3.75195 c -0.98978,0.41241 -2.22665,0.7832 -4,0.7832 -3.46422,0 -6.14649,-2.35054 -6.14649,-6.47461 -0.0412,-3.67043 2.26986,-6.51562 6.14649,-6.51562 1.81459,0 3.00916,0.41204 3.83398,0.7832 l 0.90821,-3.79492 c -1.15475,-0.53612 -3.05238,-0.94727 -4.90821,-0.94727 z m 16.76172,0 c -6.43356,0 -9.81445,5.23719 -9.81445,10.80469 0,6.14488 3.83552,10.18555 10.35156,10.18555 2.88685,0 5.27961,-0.57626 7.01172,-1.27735 l -0.74414,-3.50586 c -1.52591,0.57737 -3.21569,0.90821 -5.56641,0.90821 -3.21678,0 -6.06182,-1.56808 -6.18554,-5.19727 h 13.44336 c 0.0825,-0.45364 0.16601,-1.196 0.16601,-2.14453 0,-4.41277 -2.10483,-9.77344 -8.66211,-9.77344 z m 22.79102,0 c -2.14452,0 -4.4946,1.44345 -5.48438,4.28907 h -0.16601 l -0.16407,-3.83594 h -4.4121 c 0.12371,1.81459 0.16406,3.75272 0.16406,6.47461 v 13.60937 h 5.07226 v -10.39258 c 0,-0.57737 0.0836,-1.11275 0.16602,-1.5664 0.45365,-2.26824 2.10195,-3.83594 4.53516,-3.83594 0.6186,0 1.07391,0.0816 1.48632,0.16406 v -4.7832 c -0.41241,-0.0825 -0.70237,-0.12305 -1.19726,-0.12305 z m 27.36328,0 c -3.17553,0 -5.7751,0.86614 -7.25977,1.77344 l 0.99024,3.29883 c 1.36094,-0.86606 3.42278,-1.48438 5.40234,-1.48438 3.5467,0 4.08399,2.18615 4.08399,3.50586 v 0.32813 c -7.42333,-0.0412 -11.91993,2.51723 -11.91993,7.58984 0,3.05182 2.26896,5.97852 6.31055,5.97852 2.59817,0 4.70028,-1.11254 5.9375,-2.67969 h 0.125 l 0.33008,2.22656 h 4.57812 c -0.2062,-1.23722 -0.28906,-3.00962 -0.28906,-4.82422 v -7.25976 c 0,-4.37152 -1.8555,-8.45313 -8.28906,-8.45313 z m 35.24609,0 c -3.3405,0 -5.52652,1.89574 -6.39258,3.46289 h -0.12304 l -0.24805,-3.00976 h -4.45312 c 0.12372,1.73211 0.16406,3.67099 0.16406,5.98047 v 14.10351 h 5.11523 V 169.5625 c 0,-0.57737 0.0401,-1.1948 0.20508,-1.64844 0.53613,-1.52591 1.93818,-2.9707 3.95899,-2.9707 2.76313,0 3.83593,2.18541 3.83593,5.07226 v 11.3418 h 5.07227 v -11.91797 c 0,-6.35107 -3.62931,-8.61914 -7.13477,-8.61914 z m -21.60351,0.45313 v 20.08398 h 5.11328 v -20.08398 z m 46.33984,0 7.33984,18.43554 c 0.24744,0.49489 0.28907,0.78209 0.28907,0.98829 0,0.24744 -0.12388,0.53703 -0.33008,0.9082 -0.70109,1.36094 -1.81513,2.55717 -2.76367,3.17578 -1.03102,0.74234 -2.10269,1.19613 -2.96875,1.40234 l 1.15429,4.28907 c 1.27846,-0.16497 3.34077,-0.82626 5.32032,-2.59961 2.39197,-2.06204 4.24859,-5.40239 7.01172,-12.90821 l 5.03124,-13.6914 h -5.44335 l -3.13477,10.72265 c -0.37117,1.3197 -0.74235,2.80425 -1.07227,3.95899 h -0.12304 c -0.28868,-1.15474 -0.70283,-2.68075 -1.11524,-3.91797 l -3.6289,-10.76367 z m -110.42383,3.00976 c 3.38174,0 4.20531,3.05238 4.16407,4.90821 h -8.82422 c 0.2062,-2.06204 1.52585,-4.90821 4.66015,-4.90821 z m 53.78125,7.25977 v 2.76172 c 0,0.32993 -0.0423,0.74407 -0.16601,1.11523 -0.45365,1.44343 -1.93819,2.76172 -3.95899,2.76172 -1.60839,0 -2.88672,-0.90716 -2.88672,-2.88672 0,-3.05181 3.42378,-3.83443 7.01172,-3.75195 z" />
        </g>
      </g>
    </g>
  </g>
</svg>
