<svg xmlns="http://www.w3.org/2000/svg" xmlns:xlink="http://www.w3.org/1999/xlink" viewBox="0 0 1000 1000"><defs><linearGradient id="a" x1="1000" y1="1000" x2="0" gradientUnits="userSpaceOnUse"><stop offset="0" stop-color="#005274"/><stop offset="1" stop-color="#068853"/></linearGradient></defs><rect width="1000" height="1000" fill="url(#a)"/><path d="M231.321,307.244,194.713,167.11h35.033L251.2,267.093l24.6-99.983h32.082l25.979,99.983,20.863-99.983h34.443L352.954,307.244H316.542L291.153,211.4l-24.8,95.849Z" fill="#fff"/><path d="M430.2,190.729H399.5V167.11h30.7Zm-30.7,11.809h30.7V307.244H399.5Z" fill="#fff"/><path d="M483.539,307.244h-30.7V167.11h30.7Z" fill="#fff"/><path d="M601.431,261.189H529.4q.194,13.779,7.873,20.665a21.061,21.061,0,0,0,14.958,5.708A21.479,21.479,0,0,0,566,283.036q4.525-3.543,11.809-13.974l23.028,12Q585.291,310,550.062,310q-23.816,0-37.789-14.959-13.579-14.169-13.581-37,0-27.554,13.679-42.906t37.691-15.352q26.763,0,39.954,18.5Q601.235,234.225,601.431,261.189ZM529,242.294h41.725q-.591-10.429-7.479-15.745a21.024,21.024,0,0,0-13.384-4.33,19.593,19.593,0,0,0-13.186,4.921Q529.985,232.651,529,242.294Z" fill="#fff"/><path d="M612.253,341.884V317.872q7.086.393,10.432.394,14.17,0,14.17-7.676,0-2.56-2.755-11.219l-30.7-96.833h32.278l17.32,79.907,17.123-79.907h33.262L666.574,314.133q-4.529,13.773-10.234,19.879-7.284,7.869-19.878,7.872Z" fill="#fff"/><path d="M342.621,401.242q0,30.9-18.7,51.763-19.881,22.244-52.156,22.24t-52.157-22.24q-18.7-20.859-18.7-51.763t18.7-51.763q19.876-22.239,52.157-22.241t52.156,22.241Q342.619,370.344,342.621,401.242Zm-35.034,0q0-18.5-8.069-30.507-9.647-13.972-27.751-13.974-16.339,0-25.586,10.431-10.238,11.418-10.235,34.05,0,18.109,7.676,29.916,9.249,14.568,28.145,14.565,18.1,0,27.751-14.171Q307.585,419.549,307.587,401.242Z" fill="#fff"/><path d="M358.955,471.309V366.6h30.7v9.251a30.943,30.943,0,0,1,12.695-9.054,48.336,48.336,0,0,1,17.615-2.952q15.942,0,23.815,7.478t7.871,22.635v77.349h-30.7v-65.54q0-8.66-3.74-12.892t-11.218-4.231q-8.073,0-12.2,4.33t-4.133,13.186v65.147Z" fill="#fff"/><path d="M504.991,471.309h-30.7V331.175h30.7Z" fill="#fff"/><path d="M554.391,354.793h-30.7V331.175h30.7Zm-30.7,11.809h30.7V471.309h-30.7Z" fill="#fff"/><path d="M577.022,471.309V366.6h30.7v9.251a30.943,30.943,0,0,1,12.7-9.054,48.334,48.334,0,0,1,17.614-2.952q15.943,0,23.816,7.478t7.872,22.635v77.349h-30.7v-65.54q0-8.66-3.74-12.892t-11.218-4.231q-8.073,0-12.2,4.33t-4.132,13.186v65.147Z" fill="#fff"/><path d="M791.551,425.254H719.517q.193,13.778,7.872,20.665a21.061,21.061,0,0,0,14.958,5.708,21.483,21.483,0,0,0,13.777-4.526q4.525-3.544,11.81-13.975l23.027,12.006q-15.55,28.932-50.779,28.932-23.816,0-37.788-14.959-13.581-14.169-13.582-37,0-27.553,13.679-42.906t37.691-15.351q26.763,0,39.954,18.5Q791.355,398.29,791.551,425.254Zm-72.428-18.9h41.725q-.591-10.429-7.479-15.746a21.023,21.023,0,0,0-13.384-4.329A19.6,19.6,0,0,0,726.8,391.2Q720.1,396.717,719.123,406.359Z" fill="#fff"/><path d="M207.014,635.373V495.239h35.033V605.851h54.715v29.522Z" fill="#fff"/><path d="M342.424,518.857h-30.7V495.239h30.7Zm-30.7,11.809h30.7V635.373h-30.7Z" fill="#fff"/><path d="M365.056,635.373V495.239h30.7v45.072a36.681,36.681,0,0,1,12.892-9.349,40.131,40.131,0,0,1,15.844-3.051q18.1,0,30.31,11.809,14.364,13.977,14.17,40.151-.2,29.721-13.778,44.677-12.2,13.581-33.261,13.581a33.928,33.928,0,0,1-27.357-12.99v10.234Zm30.506-52.353q0,16.338,5.413,24.5t16.041,8.168q21.846,0,21.255-32.671-.2-16.135-4.527-23.815-5.118-8.856-16.728-8.856-10.629,0-16.041,8.167T395.562,583.02Z" fill="#fff"/><path d="M484.128,635.373V530.666h30.7v10.629q10.231-9.642,28.735-11.023l.2,27.162-3.347.393q-14.369,1.772-19.682,4.921-5.9,3.542-5.9,12.006v60.619Z" fill="#fff"/><path d="M644.139,558.221v55.3q0,14.761,2.755,21.847H618.552a62.315,62.315,0,0,1-2.362-10.825q-3.741,5.9-13.581,9.841a46.691,46.691,0,0,1-17.91,3.74q-15.549,0-25-8.07-10.038-8.46-10.038-23.028,0-17.907,14.368-27.16,12.2-7.87,39.363-11.612l11.218-1.575v-8.66q0-5.706-3.64-8.463t-10.924-2.755q-7.482,0-11.218,3.148t-4.921,10.825H554.39q.982-32.866,43.1-32.868,23.03,0,34.05,6.3Q644.136,541.493,644.139,558.221ZM614.615,591.68V584.4l-20.665,5.9q-14.762,4.134-14.762,13.581,0,5.9,3.642,8.856t10.727,2.952q9.446,0,15.253-6.2T614.615,591.68Z" fill="#fff"/><path d="M663.621,635.373V530.666h30.7v10.629q10.233-9.642,28.736-11.023l.2,27.162-3.347.393q-14.368,1.772-19.681,4.921-5.9,3.542-5.905,12.006v60.619Z" fill="#fff"/><path d="M737.426,670.013V646q7.084.393,10.431.394,14.172,0,14.171-7.676,0-2.561-2.756-11.219l-30.7-96.834h32.278l17.32,79.908,17.123-79.908h33.262l-36.805,111.6q-4.529,13.773-10.234,19.879-7.284,7.869-19.878,7.872Z" fill="#fff"/><path d="M314.714,799.438H300.3l-15.761-42.093h-61.6l-16.722,42.093H192.473L249.557,659.32h10.764Zm-34.5-53.145-25.948-69.1-26.812,69.1Z" fill="#fff"/><path d="M400.61,750.618q0,21.528-8.457,35.077-10.091,16.144-30.272,16.145-22.008,0-28.926-15.761v62.178H321.134V704.97h11.821V719.1a26.065,26.065,0,0,1,11.628-12.2,32.813,32.813,0,0,1,16.529-4.326q19.123,0,29.888,14.9Q400.609,730.725,400.61,750.618Zm-11.724,1.537q0-15.375-6.343-25.851-7.689-12.685-22.007-12.686-28.16,0-28.158,38.537,0,38.634,27.966,38.633,14.607,0,22.2-12.493Q388.885,767.917,388.886,752.155Z" fill="#fff"/><path d="M494.1,750.618q0,21.528-8.456,35.077-10.092,16.144-30.273,16.145-22.008,0-28.927-15.761v62.178h-11.82V704.97h11.82V719.1a26.07,26.07,0,0,1,11.628-12.2,32.821,32.821,0,0,1,16.531-4.326q19.122,0,29.887,14.9Q494.1,730.725,494.1,750.618Zm-11.724,1.537q0-15.375-6.343-25.851-7.69-12.685-22.008-12.686-28.158,0-28.157,38.537,0,38.634,27.965,38.633,14.607,0,22.2-12.493Q482.375,767.917,482.374,752.155Z" fill="#fff"/></svg>